<svg width="24" height="27" viewBox="0 0 24 27" fill="none" xmlns="http://www.w3.org/2000/svg">
<path d="M12.6058 1.70353C12.5263 1.62384 12.4318 1.56062 12.3279 1.51749C12.224 1.47435 12.1126 1.45215 12 1.45215C11.8874 1.45215 11.776 1.47435 11.6721 1.51749C11.5681 1.56062 11.4736 1.62384 11.3942 1.70353L1.12632 11.9714C1.04691 12.051 0.983971 12.1455 0.941099 12.2494C0.898229 12.3534 0.876266 12.4648 0.876466 12.5771V24.5563C0.876466 24.7832 0.966615 25.001 1.12708 25.1614C1.28755 25.3219 1.50519 25.412 1.73212 25.412H9.43301C9.65995 25.412 9.87759 25.3219 10.0381 25.1614C10.1985 25.001 10.2887 24.7832 10.2887 24.5563V17.7111H13.7113V24.5563C13.7113 24.7832 13.8014 25.001 13.9619 25.1614C14.1223 25.3219 14.3401 25.412 14.567 25.412H22.2678C22.4948 25.412 22.7124 25.3219 22.8728 25.1614C23.0333 25.001 23.1235 24.7832 23.1235 24.5563V12.5771C23.1237 12.4648 23.1017 12.3534 23.0588 12.2494C23.016 12.1455 22.953 12.051 22.8736 11.9714L20.5565 9.65599V4.02065C20.5565 3.79371 20.4664 3.57607 20.3059 3.4156C20.1455 3.25514 19.9279 3.16499 19.7009 3.16499H17.9896C17.7627 3.16499 17.5449 3.25514 17.3845 3.4156C17.224 3.57607 17.1339 3.79371 17.1339 4.02065V6.23337L12.6058 1.70353ZM2.58777 23.7007V12.9314L12 3.51922L21.4122 12.9314V23.7007H15.4226V16.8555C15.4226 16.6285 15.3325 16.4109 15.172 16.2505C15.0116 16.09 14.7939 15.9998 14.567 15.9998H9.43301C9.20608 15.9998 8.98844 16.09 8.82798 16.2505C8.66751 16.4109 8.57736 16.6285 8.57736 16.8555V23.7007H2.58777Z" fill="#1B75BC"/>
</svg>
