<svg width="24" height="27" viewBox="0 0 24 27" fill="none" xmlns="http://www.w3.org/2000/svg">
<path d="M0.5 4.8256C0.5 4.44217 0.65145 4.07445 0.921034 3.80332C1.19062 3.5322 1.55625 3.37988 1.9375 3.37988H22.0625C22.4437 3.37988 22.8094 3.5322 23.079 3.80332C23.3486 4.07445 23.5 4.44217 23.5 4.8256V7.71703C23.5 8.10045 23.3486 8.46817 23.079 8.7393C22.8094 9.01042 22.4437 9.16274 22.0625 9.16274V20.0056C22.0625 20.9642 21.6838 21.8835 21.0099 22.5612C20.3359 23.2391 19.4219 23.6199 18.4687 23.6199H5.53125C4.57813 23.6199 3.66405 23.2391 2.99008 22.5612C2.31613 21.8835 1.9375 20.9642 1.9375 20.0056V9.16274C1.55625 9.16274 1.19062 9.01042 0.921034 8.7393C0.65145 8.46817 0.5 8.10045 0.5 7.71703V4.8256ZM3.375 9.16274V20.0056C3.375 20.5808 3.60218 21.1323 4.00655 21.539C4.41093 21.9457 4.95938 22.1742 5.53125 22.1742H18.4687C19.0407 22.1742 19.5891 21.9457 19.9934 21.539C20.3979 21.1323 20.625 20.5808 20.625 20.0056V9.16274H3.375ZM22.0625 4.8256H1.9375V7.71703H22.0625V4.8256ZM7.6875 12.777C7.6875 12.5853 7.76323 12.4014 7.89801 12.2659C8.03281 12.1303 8.21563 12.0542 8.40625 12.0542H15.5937C15.7844 12.0542 15.9672 12.1303 16.102 12.2659C16.2368 12.4014 16.3125 12.5853 16.3125 12.777C16.3125 12.9688 16.2368 13.1526 16.102 13.2882C15.9672 13.4237 15.7844 13.4999 15.5937 13.4999H8.40625C8.21563 13.4999 8.03281 13.4237 7.89801 13.2882C7.76323 13.1526 7.6875 12.9688 7.6875 12.777Z" fill="white"/>
</svg>
