<svg width="24" height="27" viewBox="0 0 24 27" fill="none" xmlns="http://www.w3.org/2000/svg">
<path d="M20.625 3.90377C21.0062 3.90377 21.3719 4.05588 21.6415 4.32665C21.9111 4.59742 22.0625 4.96465 22.0625 5.34757V16.8981C22.0625 17.281 21.9111 17.6482 21.6415 17.919C21.3719 18.1898 21.0062 18.3418 20.625 18.3418H6.84512C6.08269 18.342 5.35154 18.6463 4.8125 19.188L1.9375 22.0756V5.34757C1.9375 4.96465 2.08895 4.59742 2.35854 4.32665C2.62812 4.05588 2.99375 3.90377 3.375 3.90377H20.625ZM3.375 2.45996C2.6125 2.45996 1.88123 2.76419 1.34207 3.30572C0.802901 3.84726 0.5 4.58173 0.5 5.34757V23.8182C0.50003 23.9611 0.542252 24.1007 0.621321 24.2194C0.700391 24.3381 0.812752 24.4307 0.944186 24.4852C1.07562 24.5398 1.22022 24.5539 1.35968 24.526C1.49914 24.4979 1.62718 24.429 1.72762 24.3279L5.82881 20.2087C6.09833 19.9379 6.46391 19.7858 6.84512 19.7857H20.625C21.3875 19.7857 22.1188 19.4814 22.6579 18.9399C23.1971 18.3983 23.5 17.6639 23.5 16.8981V5.34757C23.5 4.58173 23.1971 3.84726 22.6579 3.30572C22.1188 2.76419 21.3875 2.45996 20.625 2.45996H3.375Z" fill="#FFF1F1"/>
</svg>
