<svg width="24" height="27" viewBox="0 0 24 27" fill="none" xmlns="http://www.w3.org/2000/svg">
<path d="M5.44436 17.0804H5.27023L5.15568 17.2115L1.92061 20.9143L1.36536 21.5499H2.20929H15.5426H15.7167L15.8312 21.4189L21.8478 14.5351L22.4034 13.8994H21.5592H18.5539H18.3799L18.2654 14.0304L15.5984 17.0804H5.44436Z" stroke="white" stroke-width="0.766667"/>
<path d="M5.44436 12.8558H5.27023L5.15568 12.9869L1.92061 16.6897L1.36536 17.3253H2.20929H15.5426H15.7167L15.8312 17.1942L21.8478 10.3104L22.4034 9.6748H21.5592H18.5479H18.3736L18.2591 9.80611L15.5981 12.8558H5.44436Z" stroke="white" stroke-width="0.766667"/>
<path d="M15.5426 13.1007H15.7166L15.8312 12.9696L21.8478 6.08579L22.4033 5.4502H21.5592H8.22592H8.05182L7.93726 5.58126L1.92064 12.4651L1.36511 13.1007H2.20927H15.5426Z" stroke="white" stroke-width="0.766667"/>
</svg>
