<svg width="26" height="25" viewBox="0 0 26 25" fill="none" xmlns="http://www.w3.org/2000/svg">
<path d="M12.6343 22.5281C9.81936 22.5281 7.11974 21.4205 5.12929 19.4489C3.13885 17.4773 2.02063 14.8032 2.02063 12.015C2.02063 9.22674 3.13885 6.55269 5.12929 4.5811C7.11974 2.6095 9.81936 1.50188 12.6343 1.50188C15.4492 1.50188 18.1489 2.6095 20.1393 4.5811C22.1297 6.55269 23.2479 9.22674 23.2479 12.015C23.2479 14.8032 22.1297 17.4773 20.1393 19.4489C18.1489 21.4205 15.4492 22.5281 12.6343 22.5281ZM12.6343 24.03C15.8513 24.03 18.9367 22.7641 21.2114 20.5109C23.4862 18.2576 24.7641 15.2016 24.7641 12.015C24.7641 8.82842 23.4862 5.77236 21.2114 3.51912C18.9367 1.26586 15.8513 0 12.6343 0C9.41724 0 6.33195 1.26586 4.05715 3.51912C1.78236 5.77236 0.504395 8.82842 0.504395 12.015C0.504395 15.2016 1.78236 18.2576 4.05715 20.5109C6.33195 22.7641 9.41724 24.03 12.6343 24.03Z" fill="white"/>
<path d="M8.47212 8.69012C8.47005 8.73862 8.47801 8.78703 8.49552 8.83237C8.51303 8.87771 8.53972 8.91903 8.57394 8.95377C8.60817 8.98852 8.64922 9.01596 8.69455 9.03442C8.73988 9.05287 8.78853 9.06195 8.83753 9.06108H10.0884C10.2976 9.06108 10.4645 8.89137 10.4917 8.68562C10.6282 7.70039 11.3105 6.98249 12.5266 6.98249C13.5667 6.98249 14.5188 7.49763 14.5188 8.73668C14.5188 9.69032 13.9518 10.1289 13.0557 10.7958C12.0353 11.5302 11.2271 12.3877 11.2847 13.7799L11.2893 14.1059C11.2908 14.2044 11.3315 14.2984 11.4024 14.3675C11.4734 14.4366 11.5688 14.4754 11.6683 14.4754H12.898C12.9985 14.4754 13.0949 14.4358 13.166 14.3654C13.2372 14.295 13.2771 14.1994 13.2771 14.0998V13.9422C13.2771 12.8638 13.691 12.55 14.8085 11.7104C15.7319 11.015 16.6947 10.2431 16.6947 8.62254C16.6947 6.35321 14.7599 5.25684 12.6418 5.25684C10.7207 5.25684 8.61616 6.14294 8.47212 8.69012ZM10.8329 17.3454C10.8329 18.1459 11.4773 18.7376 12.3643 18.7376C13.2876 18.7376 13.923 18.1459 13.923 17.3454C13.923 16.5164 13.2862 15.9337 12.3628 15.9337C11.4773 15.9337 10.8329 16.5164 10.8329 17.3454Z" fill="white"/>
</svg>
