<svg width="26" height="21" viewBox="0 0 26 21" fill="none" xmlns="http://www.w3.org/2000/svg">
<path d="M10.7879 10.2194C12.152 10.2194 13.4602 9.68267 14.4248 8.72725C15.3893 7.77184 15.9312 6.47601 15.9312 5.12485C15.9312 3.77368 15.3893 2.47785 14.4248 1.52244C13.4602 0.567021 12.152 0.0302734 10.7879 0.0302734C9.42383 0.0302734 8.11562 0.567021 7.15107 1.52244C6.1865 2.47785 5.64463 3.77368 5.64463 5.12485C5.64463 6.47601 6.1865 7.77184 7.15107 8.72725C8.11562 9.68267 9.42383 10.2194 10.7879 10.2194ZM14.2167 5.12485C14.2167 6.02562 13.8555 6.88951 13.2125 7.52645C12.5694 8.1634 11.6973 8.52123 10.7879 8.52123C9.87853 8.52123 9.00638 8.1634 8.36334 7.52645C7.72031 6.88951 7.35906 6.02562 7.35906 5.12485C7.35906 4.22407 7.72031 3.36018 8.36334 2.72324C9.00638 2.0863 9.87853 1.72846 10.7879 1.72846C11.6973 1.72846 12.5694 2.0863 13.2125 2.72324C13.8555 3.36018 14.2167 4.22407 14.2167 5.12485ZM21.0745 18.7104C21.0745 20.4086 19.36 20.4086 19.36 20.4086H2.21577C2.21577 20.4086 0.501343 20.4086 0.501343 18.7104C0.501343 17.0122 2.21577 11.9176 10.7879 11.9176C19.36 11.9176 21.0745 17.0122 21.0745 18.7104ZM19.36 18.7035C19.3584 18.2859 19.096 17.0291 17.9336 15.8777C16.8158 14.7706 14.7122 13.6158 10.7879 13.6158C6.86187 13.6158 4.75998 14.7706 3.64217 15.8777C2.4798 17.0291 2.21921 18.2859 2.21577 18.7035H19.36Z" fill="white"/>
<path fill-rule="evenodd" clip-rule="evenodd" d="M21.09 1.11719C21.3174 1.11719 21.5354 1.20665 21.6962 1.36588C21.8569 1.52512 21.9472 1.74109 21.9472 1.96628V4.51357H24.5189C24.7463 4.51357 24.9643 4.60303 25.125 4.76226C25.2858 4.9215 25.3761 5.13747 25.3761 5.36266C25.3761 5.58786 25.2858 5.80382 25.125 5.96307C24.9643 6.1223 24.7463 6.21176 24.5189 6.21176H21.9472V8.75905C21.9472 8.98424 21.8569 9.20021 21.6962 9.35945C21.5354 9.51868 21.3174 9.60814 21.09 9.60814C20.8627 9.60814 20.6446 9.51868 20.4839 9.35945C20.3232 9.20021 20.2328 8.98424 20.2328 8.75905V6.21176H17.6611C17.4338 6.21176 17.2158 6.1223 17.055 5.96307C16.8943 5.80382 16.804 5.58786 16.804 5.36266C16.804 5.13747 16.8943 4.9215 17.055 4.76226C17.2158 4.60303 17.4338 4.51357 17.6611 4.51357H20.2328V1.96628C20.2328 1.74109 20.3232 1.52512 20.4839 1.36588C20.6446 1.20665 20.8627 1.11719 21.09 1.11719Z" fill="white"/>
</svg>
