<svg width="24" height="27" viewBox="0 0 24 27" fill="none" xmlns="http://www.w3.org/2000/svg">
<path d="M7.59413 20.191C7.59413 20.1049 7.62785 20.024 7.68494 19.9659C7.74171 19.9081 7.81669 19.8774 7.89284 19.8774H22.6786C22.7547 19.8774 22.8296 19.9081 22.8864 19.9659C22.9435 20.024 22.9773 20.1049 22.9773 20.191C22.9773 20.2771 22.9435 20.358 22.8864 20.4161C22.8296 20.4739 22.7547 20.5046 22.6786 20.5046H7.89284C7.81669 20.5046 7.74171 20.4739 7.68494 20.4161C7.62785 20.358 7.59413 20.2771 7.59413 20.191ZM7.59413 13.5001C7.59413 13.4139 7.62785 13.3331 7.68494 13.275C7.74171 13.2172 7.81669 13.1865 7.89284 13.1865H22.6786C22.7547 13.1865 22.8296 13.2172 22.8864 13.275C22.9435 13.3331 22.9773 13.4139 22.9773 13.5001C22.9773 13.5863 22.9435 13.6671 22.8864 13.7252C22.8296 13.783 22.7547 13.8137 22.6786 13.8137H7.89284C7.81669 13.8137 7.74171 13.783 7.68494 13.7252C7.62785 13.6671 7.59413 13.5863 7.59413 13.5001ZM7.59413 6.80918C7.59413 6.72299 7.62785 6.64219 7.68494 6.58406C7.74171 6.52626 7.81669 6.49554 7.89284 6.49554H22.6786C22.7547 6.49554 22.8296 6.52626 22.8864 6.58406C22.9435 6.64219 22.9773 6.72299 22.9773 6.80918C22.9773 6.89537 22.9435 6.97617 22.8864 7.0343C22.8296 7.0921 22.7547 7.12282 22.6786 7.12282H7.89284C7.81669 7.12282 7.74171 7.0921 7.68494 7.0343C7.62785 6.97617 7.59413 6.89537 7.59413 6.80918ZM2.93157 7.6257C2.72075 7.84035 2.43684 7.95918 2.14284 7.95918C1.84883 7.95918 1.56492 7.84035 1.3541 7.6257C1.14296 7.41072 1.02271 7.11719 1.02271 6.80918C1.02271 6.50117 1.14296 6.20764 1.3541 5.99266C1.56492 5.77801 1.84882 5.65918 2.14284 5.65918C2.43684 5.65918 2.72075 5.77801 2.93157 5.99266C3.14271 6.20764 3.26297 6.50117 3.26297 6.80918C3.26297 7.11719 3.14271 7.41072 2.93157 7.6257ZM2.93157 14.3166C2.72075 14.5313 2.43684 14.6501 2.14284 14.6501C1.84883 14.6501 1.56492 14.5313 1.3541 14.3166C1.14296 14.1016 1.02271 13.8081 1.02271 13.5001C1.02271 13.1921 1.14296 12.8985 1.3541 12.6836C1.56492 12.4689 1.84883 12.3501 2.14284 12.3501C2.43684 12.3501 2.72075 12.4689 2.93157 12.6836C3.14271 12.8985 3.26297 13.1921 3.26297 13.5001C3.26297 13.8081 3.14271 14.1016 2.93157 14.3166ZM2.93157 21.0075C2.72075 21.2221 2.43684 21.341 2.14284 21.341C1.84883 21.341 1.56492 21.2221 1.3541 21.0075C1.14296 20.7926 1.02271 20.499 1.02271 20.191C1.02271 19.883 1.14296 19.5894 1.3541 19.3745C1.56492 19.1599 1.84883 19.041 2.14284 19.041C2.43684 19.041 2.72075 19.1599 2.93157 19.3745C3.14271 19.5894 3.26297 19.883 3.26297 20.191C3.26297 20.499 3.14271 20.7926 2.93157 21.0075Z" fill="black" stroke="white" stroke-width="1.04545"/>
</svg>
