<svg width="24" height="27" viewBox="0 0 24 27" fill="none" xmlns="http://www.w3.org/2000/svg">
<path d="M2.49278 10.7049C2.30414 10.7049 2.15088 10.5585 2.15088 10.3784C2.15088 10.1982 2.30414 10.0518 2.49278 10.0518C2.68141 10.0518 2.83467 10.1982 2.83467 10.3784C2.83467 10.5585 2.68141 10.7049 2.49278 10.7049Z" fill="white"/>
<path d="M2.49278 11.2137C2.30414 11.2137 2.15088 11.0674 2.15088 10.8871C2.15088 10.707 2.30414 10.5605 2.49278 10.5605C2.68141 10.5605 2.83467 10.707 2.83467 10.8871C2.83467 11.0674 2.68141 11.2137 2.49278 11.2137Z" fill="white"/>
<path d="M2.49278 11.7225C2.30414 11.7225 2.15088 11.5762 2.15088 11.3959C2.15088 11.2157 2.30414 11.0693 2.49278 11.0693C2.68141 11.0693 2.83467 11.2157 2.83467 11.3959C2.83467 11.5762 2.68141 11.7225 2.49278 11.7225Z" fill="white"/>
<path d="M2.49278 12.2362C2.30414 12.2362 2.15088 12.0897 2.15088 11.9096C2.15088 11.7294 2.30414 11.583 2.49278 11.583C2.68141 11.583 2.83467 11.7294 2.83467 11.9096C2.83467 12.0897 2.68141 12.2362 2.49278 12.2362Z" fill="white"/>
<path d="M2.49278 12.744C2.30414 12.744 2.15088 12.5976 2.15088 12.4174C2.15088 12.2373 2.30414 12.0908 2.49278 12.0908C2.68141 12.0908 2.83467 12.2373 2.83467 12.4174C2.83467 12.5976 2.68141 12.744 2.49278 12.744Z" fill="white"/>
<path d="M2.49278 13.2528C2.30414 13.2528 2.15088 13.1064 2.15088 12.9262C2.15088 12.7461 2.30414 12.5996 2.49278 12.5996C2.68141 12.5996 2.83467 12.7461 2.83467 12.9262C2.83467 13.1064 2.68141 13.2528 2.49278 13.2528Z" fill="white"/>
<path d="M2.49278 13.7616C2.30414 13.7616 2.15088 13.6152 2.15088 13.435C2.15088 13.2548 2.30414 13.1084 2.49278 13.1084C2.68141 13.1084 2.83467 13.2548 2.83467 13.435C2.83467 13.6152 2.68141 13.7616 2.49278 13.7616Z" fill="white"/>
<path d="M2.49278 14.2704C2.30414 14.2704 2.15088 14.1239 2.15088 13.9438C2.15088 13.7636 2.30414 13.6172 2.49278 13.6172C2.68141 13.6172 2.83467 13.7636 2.83467 13.9438C2.83467 14.1239 2.68141 14.2704 2.49278 14.2704Z" fill="white"/>
<path d="M2.49278 14.7782C2.30414 14.7782 2.15088 14.6317 2.15088 14.4516C2.15088 14.2714 2.30414 14.125 2.49278 14.125C2.68141 14.125 2.83467 14.2714 2.83467 14.4516C2.83467 14.6317 2.68141 14.7782 2.49278 14.7782Z" fill="white"/>
<path d="M2.49278 15.287C2.30414 15.287 2.15088 15.1406 2.15088 14.9604C2.15088 14.7803 2.30414 14.6338 2.49278 14.6338C2.68141 14.6338 2.83467 14.7803 2.83467 14.9604C2.83467 15.1406 2.68141 15.287 2.49278 15.287Z" fill="white"/>
<path d="M2.49278 15.8007C2.30414 15.8007 2.15088 15.6543 2.15088 15.4741C2.15088 15.2938 2.30414 15.1475 2.49278 15.1475C2.68141 15.1475 2.83467 15.2938 2.83467 15.4741C2.83467 15.6543 2.68141 15.8007 2.49278 15.8007Z" fill="white"/>
<path d="M2.49278 16.3085C2.30414 16.3085 2.15088 16.162 2.15088 15.9819C2.15088 15.8016 2.30414 15.6553 2.49278 15.6553C2.68141 15.6553 2.83467 15.8016 2.83467 15.9819C2.83467 16.162 2.68141 16.3085 2.49278 16.3085Z" fill="white"/>
<path d="M2.49278 16.8172C2.30414 16.8172 2.15088 16.6708 2.15088 16.4907C2.15088 16.3104 2.30414 16.1641 2.49278 16.1641C2.68141 16.1641 2.83467 16.3104 2.83467 16.4907C2.83467 16.6708 2.68141 16.8172 2.49278 16.8172Z" fill="white"/>
<path d="M2.49278 17.3261C2.30414 17.3261 2.15088 17.1797 2.15088 16.9995C2.15088 16.8193 2.30414 16.6729 2.49278 16.6729C2.68141 16.6729 2.83467 16.8193 2.83467 16.9995C2.83467 17.1797 2.68141 17.3261 2.49278 17.3261Z" fill="white"/>
<path d="M12.2027 5.33971C12.0141 5.33971 11.8608 5.19331 11.8608 5.01312C11.8608 4.83293 12.0141 4.68652 12.2027 4.68652C12.3913 4.68652 12.5446 4.83293 12.5446 5.01312C12.5446 5.19331 12.3913 5.33971 12.2027 5.33971Z" fill="white"/>
<path d="M12.2027 5.84851C12.0141 5.84851 11.8608 5.7021 11.8608 5.52191C11.8608 5.34172 12.0141 5.19531 12.2027 5.19531C12.3913 5.19531 12.5446 5.34172 12.5446 5.52191C12.5446 5.7021 12.3913 5.84851 12.2027 5.84851Z" fill="white"/>
<path d="M12.2027 6.35729C12.0141 6.35729 11.8608 6.21089 11.8608 6.0307C11.8608 5.85051 12.0141 5.7041 12.2027 5.7041C12.3913 5.7041 12.5446 5.85051 12.5446 6.0307C12.5446 6.21089 12.3913 6.35729 12.2027 6.35729Z" fill="white"/>
<path d="M12.2027 6.86511C12.0141 6.86511 11.8608 6.71871 11.8608 6.53851C11.8608 6.35832 12.0141 6.21191 12.2027 6.21191C12.3913 6.21191 12.5446 6.35832 12.5446 6.53851C12.5446 6.71871 12.3913 6.86511 12.2027 6.86511Z" fill="white"/>
<path d="M12.2027 7.37389C12.0141 7.37389 11.8608 7.22749 11.8608 7.0473C11.8608 6.86711 12.0141 6.7207 12.2027 6.7207C12.3913 6.7207 12.5446 6.86711 12.5446 7.0473C12.5446 7.23876 12.3913 7.37389 12.2027 7.37389Z" fill="white"/>
<path d="M12.2027 7.88758C12.0141 7.88758 11.8608 7.74117 11.8608 7.56098C11.8608 7.38078 12.0141 7.23438 12.2027 7.23438C12.3913 7.23438 12.5446 7.38078 12.5446 7.56098C12.5446 7.74117 12.3913 7.88758 12.2027 7.88758Z" fill="white"/>
<path d="M12.2027 8.39539C12.3916 8.39539 12.5446 8.24916 12.5446 8.06879C12.5446 7.88841 12.3916 7.74219 12.2027 7.74219C12.0139 7.74219 11.8608 7.88841 11.8608 8.06879C11.8608 8.24916 12.0139 8.39539 12.2027 8.39539Z" fill="white"/>
<path d="M4.32789 9.68346C4.26947 9.68346 4.21105 9.67201 4.16431 9.63763C4.00073 9.54595 3.9423 9.33969 4.04746 9.19071C4.10588 9.08757 4.22273 9.03027 4.33957 9.03027C4.398 9.03027 4.45642 9.04174 4.50316 9.07612C4.58495 9.12195 4.63169 9.19071 4.66674 9.27093C4.69011 9.35114 4.67843 9.44282 4.63169 9.52303C4.56158 9.61471 4.44474 9.68346 4.32789 9.68346Z" fill="white"/>
<path d="M4.79188 9.93542C4.73345 9.93542 4.67503 9.92395 4.6283 9.88958C4.46471 9.79791 4.40629 9.59163 4.51145 9.44266C4.56988 9.33952 4.68672 9.28223 4.80357 9.28223C4.86199 9.28223 4.92041 9.29368 4.96715 9.32806C5.04894 9.3739 5.09567 9.44266 5.13073 9.52287C5.15409 9.60309 5.14241 9.69476 5.09567 9.77499C5.01389 9.87812 4.90872 9.93542 4.79188 9.93542Z" fill="white"/>
<path d="M5.25838 10.1874C5.19924 10.1874 5.14011 10.1761 5.09281 10.1423C5.01001 10.0973 4.96271 10.0297 4.92723 9.93961C4.90358 9.86078 4.9154 9.77068 4.96271 9.69185C5.02185 9.59049 5.14011 9.53418 5.25838 9.53418C5.31752 9.53418 5.37664 9.54544 5.42395 9.57923C5.58952 9.66933 5.64866 9.87204 5.55405 10.0184C5.49491 10.1198 5.37664 10.1874 5.25838 10.1874Z" fill="white"/>
<path d="M5.71799 10.4344C5.6584 10.4344 5.59881 10.4234 5.55113 10.3902C5.46771 10.3458 5.42003 10.2794 5.3962 10.1909C5.37236 10.1134 5.38427 10.0248 5.43195 9.94732C5.49155 9.84768 5.61072 9.78125 5.72991 9.78125C5.7895 9.78125 5.84909 9.79233 5.89676 9.82554C6.06362 9.91411 6.11129 10.1134 6.02786 10.2573C5.94443 10.3791 5.83717 10.4344 5.71799 10.4344Z" fill="white"/>
<path d="M6.1771 10.6962C6.1175 10.6962 6.05791 10.6849 6.01024 10.6511C5.92681 10.6061 5.87914 10.5385 5.8553 10.4484C5.83146 10.3696 5.84339 10.2795 5.89106 10.2006C5.95065 10.0993 6.06984 10.043 6.18901 10.043C6.24861 10.043 6.3082 10.0542 6.35587 10.088C6.52272 10.1781 6.5704 10.3808 6.48697 10.5272C6.41546 10.6286 6.29628 10.6962 6.1771 10.6962Z" fill="white"/>
<path d="M6.64971 10.9569C6.58906 10.9569 6.52841 10.9454 6.47989 10.9111C6.31008 10.8194 6.26156 10.6131 6.34646 10.4642C6.40711 10.361 6.52841 10.3037 6.64971 10.3037C6.71035 10.3037 6.77101 10.3152 6.81953 10.3495C6.90444 10.3954 6.95295 10.4642 6.97721 10.5444C7.00147 10.6246 6.98934 10.7162 6.94082 10.7965C6.8923 10.8882 6.77101 10.9569 6.64971 10.9569Z" fill="white"/>
<path d="M7.09763 11.2001C7.03849 11.2001 6.97936 11.189 6.93206 11.1558C6.84927 11.1115 6.80196 11.0451 6.77831 10.9566C6.75465 10.879 6.76648 10.7905 6.81378 10.7129C6.87292 10.6133 6.99119 10.5469 7.10945 10.5469C7.16859 10.5469 7.22773 10.558 7.27503 10.5912C7.44061 10.6797 7.49973 10.879 7.40512 11.023C7.33416 11.1447 7.2159 11.2001 7.09763 11.2001Z" fill="white"/>
<path d="M12.2027 19.6356C12.0141 19.6356 11.8608 19.4892 11.8608 19.309C11.8608 19.1288 12.0141 18.9824 12.2027 18.9824C12.3913 18.9824 12.5446 19.1288 12.5446 19.309C12.5446 19.4892 12.3913 19.6356 12.2027 19.6356Z" fill="white"/>
<path d="M12.2027 20.1444C12.0141 20.1444 11.8608 19.998 11.8608 19.8178C11.8608 19.6377 12.0141 19.4912 12.2027 19.4912C12.3913 19.4912 12.5446 19.6377 12.5446 19.8178C12.5446 19.998 12.3913 20.1444 12.2027 20.1444Z" fill="white"/>
<path d="M12.2027 20.6522C12.0141 20.6522 11.8608 20.5059 11.8608 20.3256C11.8608 20.1455 12.0141 19.999 12.2027 19.999C12.3913 19.999 12.5446 20.1455 12.5446 20.3256C12.5446 20.5171 12.3913 20.6522 12.2027 20.6522Z" fill="white"/>
<path d="M12.2027 21.1659C12.0141 21.1659 11.8608 21.0194 11.8608 20.8393C11.8608 20.6591 12.0141 20.5127 12.2027 20.5127C12.3913 20.5127 12.5446 20.6591 12.5446 20.8393C12.5446 21.0194 12.3913 21.1659 12.2027 21.1659Z" fill="white"/>
<path d="M12.2027 21.6746C12.0141 21.6746 11.8608 21.5282 11.8608 21.3481C11.8608 21.1679 12.0141 21.0215 12.2027 21.0215C12.3913 21.0215 12.5446 21.1679 12.5446 21.3481C12.5446 21.5282 12.3913 21.6746 12.2027 21.6746Z" fill="white"/>
<path d="M12.2027 22.1825C12.0141 22.1825 11.8608 22.0361 11.8608 21.8559C11.8608 21.6758 12.0141 21.5293 12.2027 21.5293C12.3913 21.5293 12.5446 21.6758 12.5446 21.8559C12.5446 22.0361 12.3913 22.1825 12.2027 22.1825Z" fill="white"/>
<path d="M12.2027 22.6913C12.0141 22.6913 11.8608 22.5449 11.8608 22.3647C11.8608 22.1845 12.0141 22.0381 12.2027 22.0381C12.3913 22.0381 12.5446 22.1845 12.5446 22.3647C12.5446 22.5449 12.3913 22.6913 12.2027 22.6913Z" fill="white"/>
<path d="M17.303 16.8309C17.243 16.8309 17.183 16.8194 17.1351 16.785C17.0511 16.7392 17.003 16.6705 16.9671 16.5903C16.9431 16.51 16.9551 16.4183 17.003 16.3382C17.063 16.235 17.183 16.1777 17.303 16.1777C17.363 16.1777 17.4229 16.1891 17.471 16.2236C17.5549 16.2694 17.6029 16.3382 17.6269 16.4298C17.6509 16.51 17.6389 16.6017 17.5909 16.6819C17.5429 16.7621 17.4229 16.8309 17.303 16.8309Z" fill="white"/>
<path d="M17.7527 17.0829C17.6932 17.0829 17.6336 17.0715 17.5859 17.0371C17.5025 16.9913 17.4548 16.9224 17.431 16.8422C17.4072 16.762 17.419 16.6704 17.4667 16.5901C17.5263 16.487 17.6455 16.4297 17.7647 16.4297C17.8243 16.4297 17.8838 16.4412 17.9316 16.4755C18.0984 16.5672 18.146 16.7735 18.0627 16.9224C17.9911 17.0256 17.8838 17.0829 17.7527 17.0829Z" fill="white"/>
<path d="M18.2168 17.3397C18.1572 17.3397 18.0976 17.3283 18.0499 17.2939C17.9664 17.2481 17.9188 17.1794 17.895 17.0991C17.8711 17.0189 17.8831 16.9272 17.9307 16.847C17.9904 16.7438 18.1095 16.6865 18.2287 16.6865C18.2883 16.6865 18.3479 16.698 18.3955 16.7324C18.5624 16.8241 18.6101 17.0303 18.5266 17.1794C18.4551 17.2825 18.3359 17.3397 18.2168 17.3397Z" fill="white"/>
<path d="M18.6735 17.5966C18.6143 17.5966 18.5551 17.5851 18.5079 17.5507C18.4251 17.5048 18.3778 17.4361 18.3541 17.3559C18.3305 17.2757 18.3423 17.184 18.3895 17.1038C18.4487 17.0007 18.567 16.9434 18.6852 16.9434C18.7444 16.9434 18.8035 16.9548 18.8508 16.9892C19.0164 17.0808 19.0755 17.2872 18.9809 17.4361C18.91 17.5277 18.8035 17.5966 18.6735 17.5966Z" fill="white"/>
<path d="M19.1374 17.8485C19.0783 17.8485 19.0192 17.8371 18.9718 17.8027C18.8891 17.7569 18.8417 17.6881 18.8181 17.6078C18.7944 17.5277 18.8063 17.436 18.8536 17.3558C18.9128 17.2526 19.031 17.1953 19.1493 17.1953C19.2083 17.1953 19.2675 17.2068 19.3148 17.2412C19.4804 17.3329 19.5395 17.5391 19.4449 17.6881C19.3739 17.7912 19.2557 17.8485 19.1374 17.8485Z" fill="white"/>
<path d="M19.6082 18.1053C19.5488 18.1053 19.4895 18.0938 19.4421 18.0594C19.2759 17.9678 19.2166 17.7615 19.3115 17.6125C19.3709 17.5094 19.4895 17.4521 19.6082 17.4521C19.6675 17.4521 19.7268 17.4636 19.7742 17.498C19.9404 17.5896 19.9997 17.7959 19.9048 17.9449C19.8336 18.0365 19.7268 18.1053 19.6082 18.1053Z" fill="white"/>
<path d="M20.0673 18.3573C20.0079 18.3573 19.9486 18.3458 19.9011 18.3115C19.7351 18.2198 19.6757 18.0135 19.7707 17.8645C19.8299 17.7614 19.9486 17.7041 20.0673 17.7041C20.1265 17.7041 20.1859 17.7156 20.2333 17.7499C20.3994 17.8416 20.4587 18.0479 20.3639 18.1969C20.3045 18.3 20.1859 18.3573 20.0673 18.3573Z" fill="white"/>
<path d="M17.297 11.2089C17.179 11.2089 17.0612 11.1515 17.0022 11.0484C16.9551 10.9682 16.9433 10.888 16.9669 10.7962C16.9904 10.716 17.0494 10.6359 17.1319 10.6015C17.179 10.5786 17.238 10.5557 17.297 10.5557C17.4148 10.5557 17.5328 10.6129 17.5918 10.716C17.6389 10.7962 17.6506 10.8765 17.6271 10.9682C17.6035 11.0484 17.5446 11.1286 17.4738 11.163C17.4148 11.1974 17.356 11.2089 17.297 11.2089Z" fill="white"/>
<path d="M17.7632 10.9569C17.6429 10.9569 17.5225 10.8996 17.4623 10.7965C17.4142 10.7162 17.4021 10.636 17.4262 10.5444C17.4503 10.4642 17.5105 10.3839 17.5826 10.3495C17.6308 10.3266 17.691 10.3037 17.7512 10.3037C17.8715 10.3037 17.9919 10.361 18.052 10.4642C18.1483 10.6246 18.0882 10.8194 17.9196 10.9111C17.8956 10.934 17.8355 10.9569 17.7632 10.9569Z" fill="white"/>
<path d="M18.2272 10.7011C18.1068 10.7011 17.9865 10.6438 17.9263 10.5406C17.8782 10.4604 17.8662 10.3688 17.8902 10.2885C17.9143 10.2083 17.9744 10.1281 18.0467 10.0937C18.0948 10.0708 18.1549 10.0479 18.2151 10.0479C18.3355 10.0479 18.4559 10.1051 18.516 10.2083C18.6123 10.3688 18.5521 10.5635 18.3837 10.6553C18.3475 10.6896 18.2873 10.7011 18.2272 10.7011Z" fill="white"/>
<path d="M18.6863 10.4442C18.566 10.4442 18.4456 10.3869 18.3854 10.2838C18.3373 10.2036 18.3252 10.1233 18.3493 10.0317C18.3733 9.95145 18.4336 9.87123 18.5057 9.83685C18.5539 9.81393 18.6141 9.79102 18.6743 9.79102C18.7946 9.79102 18.915 9.84831 18.9751 9.95145C19.0714 10.1119 19.0113 10.3067 18.8427 10.3983C18.8187 10.4328 18.7465 10.4442 18.6863 10.4442Z" fill="white"/>
<path d="M19.1504 10.1923C19.03 10.1923 18.9097 10.135 18.8495 10.0318C18.8014 9.95161 18.7894 9.87139 18.8134 9.77972C18.8375 9.6995 18.8977 9.61928 18.9699 9.58491C19.018 9.56198 19.0782 9.53906 19.1383 9.53906C19.2588 9.53906 19.3791 9.59636 19.4393 9.6995C19.5355 9.85993 19.4753 10.0547 19.3069 10.1464C19.2707 10.1808 19.2105 10.1923 19.1504 10.1923Z" fill="white"/>
<path d="M19.6082 9.93542C19.4895 9.93542 19.3709 9.87812 19.3115 9.77499C19.2166 9.61455 19.2759 9.41974 19.4421 9.32806C19.4895 9.29368 19.5488 9.28223 19.6082 9.28223C19.7268 9.28223 19.8454 9.33952 19.9048 9.44266C19.9997 9.6031 19.9404 9.79791 19.7742 9.88958C19.7268 9.92395 19.6556 9.93542 19.6082 9.93542Z" fill="white"/>
<path d="M20.0673 9.68346C19.9486 9.68346 19.8299 9.62618 19.7707 9.52303C19.6757 9.36261 19.7351 9.1678 19.9011 9.07612C19.9486 9.0532 20.0079 9.03027 20.0673 9.03027C20.1859 9.03027 20.3045 9.08757 20.3639 9.19071C20.4587 9.35114 20.3994 9.54595 20.2333 9.63763C20.1859 9.66055 20.1265 9.68346 20.0673 9.68346Z" fill="white"/>
<path d="M4.33994 18.3573C4.21967 18.3573 4.0994 18.3 4.03926 18.1969C3.94304 18.0364 4.00318 17.8416 4.15953 17.7499C4.20765 17.7156 4.26778 17.7041 4.32792 17.7041C4.44819 17.7041 4.56847 17.7728 4.6286 17.8645C4.67672 17.9448 4.68874 18.025 4.66468 18.1166C4.64064 18.1969 4.5805 18.2771 4.49631 18.3115C4.46022 18.3458 4.40008 18.3573 4.33994 18.3573Z" fill="white"/>
<path d="M4.79798 18.1005C4.67971 18.1005 4.56144 18.0328 4.50231 17.9316C4.40769 17.7739 4.46683 17.5824 4.6324 17.4923C4.67971 17.4585 4.73885 17.4473 4.79798 17.4473C4.91624 17.4473 5.03451 17.5036 5.09365 17.605C5.14095 17.6838 5.15277 17.7626 5.12912 17.8527C5.10547 17.9316 5.04634 18.0103 4.96355 18.0442C4.91624 18.0779 4.85711 18.1005 4.79798 18.1005Z" fill="white"/>
<path d="M5.2573 17.8436C5.1394 17.8436 5.02151 17.7872 4.96256 17.6859C4.9154 17.6071 4.90362 17.5283 4.9272 17.4382C4.95077 17.3593 5.00972 17.2805 5.09224 17.2354C5.1394 17.2017 5.19836 17.1904 5.2573 17.1904C5.3752 17.1904 5.4931 17.258 5.55204 17.348C5.5992 17.4269 5.61099 17.5057 5.58741 17.5958C5.56383 17.6746 5.50488 17.7535 5.43414 17.7872C5.3752 17.8323 5.31625 17.8436 5.2573 17.8436Z" fill="white"/>
<path d="M5.7284 17.5917C5.60806 17.5917 5.48771 17.5354 5.42753 17.434C5.37939 17.3551 5.36736 17.2763 5.39143 17.1862C5.4155 17.1074 5.47568 17.0285 5.54788 16.9836C5.59602 16.9497 5.6562 16.9385 5.71637 16.9385C5.83672 16.9385 5.95707 16.9948 6.01725 17.0962C6.11352 17.2539 6.05335 17.4453 5.88486 17.5354C5.84876 17.5691 5.78858 17.5917 5.7284 17.5917Z" fill="white"/>
<path d="M6.18018 17.3397C6.0619 17.3397 5.94364 17.2825 5.88451 17.1794C5.7899 17.0189 5.84903 16.8241 6.0146 16.7324C6.06191 16.698 6.12104 16.6865 6.18018 16.6865C6.29845 16.6865 6.41671 16.7438 6.47584 16.847C6.52315 16.9272 6.53498 17.0074 6.51132 17.0991C6.48767 17.1794 6.42853 17.2595 6.35757 17.3054C6.29845 17.3283 6.23931 17.3397 6.18018 17.3397Z" fill="white"/>
<path d="M6.64524 17.0829C6.5266 17.0829 6.40796 17.0256 6.34864 16.9224C6.25373 16.762 6.31305 16.5672 6.47915 16.4755C6.5266 16.4412 6.58592 16.4297 6.64524 16.4297C6.76389 16.4297 6.88252 16.487 6.94184 16.5901C7.03676 16.7506 6.97744 16.9453 6.81134 17.0371C6.76389 17.0715 6.70456 17.0829 6.64524 17.0829Z" fill="white"/>
<path d="M7.11061 16.827C6.99026 16.827 6.86991 16.7707 6.80974 16.6693C6.7616 16.5905 6.74956 16.5117 6.77363 16.4216C6.7977 16.3427 6.85788 16.2639 6.93008 16.2189C6.97822 16.1851 7.0384 16.1738 7.09857 16.1738C7.21892 16.1738 7.33927 16.2301 7.39945 16.3315C7.49572 16.4892 7.43555 16.6807 7.26706 16.7707C7.23096 16.8045 7.17078 16.827 7.11061 16.827Z" fill="white"/>
<path d="M21.9078 10.7049C21.7191 10.7049 21.5658 10.5585 21.5658 10.3784C21.5658 10.1982 21.7191 10.0518 21.9078 10.0518C22.0964 10.0518 22.2496 10.1982 22.2496 10.3784C22.2496 10.5585 22.0964 10.7049 21.9078 10.7049Z" fill="white"/>
<path d="M21.9078 11.2137C21.7191 11.2137 21.5658 11.0674 21.5658 10.8871C21.5658 10.707 21.7191 10.5605 21.9078 10.5605C22.0964 10.5605 22.2496 10.707 22.2496 10.8871C22.2496 11.0674 22.0964 11.2137 21.9078 11.2137Z" fill="white"/>
<path d="M21.9078 11.7225C21.7191 11.7225 21.5658 11.5762 21.5658 11.3959C21.5658 11.2157 21.7191 11.0693 21.9078 11.0693C22.0964 11.0693 22.2496 11.2157 22.2496 11.3959C22.2496 11.5762 22.0964 11.7225 21.9078 11.7225Z" fill="white"/>
<path d="M21.9078 12.2313C21.7191 12.2313 21.5658 12.0849 21.5658 11.9047C21.5658 11.7245 21.7191 11.5781 21.9078 11.5781C22.0964 11.5781 22.2496 11.7245 22.2496 11.9047C22.2496 12.0849 22.0964 12.2313 21.9078 12.2313Z" fill="white"/>
<path d="M21.9078 12.744C21.7191 12.744 21.5658 12.5976 21.5658 12.4174C21.5658 12.2373 21.7191 12.0908 21.9078 12.0908C22.0964 12.0908 22.2496 12.2373 22.2496 12.4174C22.2496 12.5976 22.0964 12.744 21.9078 12.744Z" fill="white"/>
<path d="M21.9078 13.2528C21.7191 13.2528 21.5658 13.1064 21.5658 12.9262C21.5658 12.7461 21.7191 12.5996 21.9078 12.5996C22.0964 12.5996 22.2496 12.7461 22.2496 12.9262C22.2496 13.1064 22.0964 13.2528 21.9078 13.2528Z" fill="white"/>
<path d="M21.9078 13.7616C21.7191 13.7616 21.5658 13.6152 21.5658 13.435C21.5658 13.2548 21.7191 13.1084 21.9078 13.1084C22.0964 13.1084 22.2496 13.2548 22.2496 13.435C22.2496 13.6152 22.0964 13.7616 21.9078 13.7616Z" fill="white"/>
<path d="M21.9078 14.2704C21.7191 14.2704 21.5658 14.1239 21.5658 13.9438C21.5658 13.7636 21.7191 13.6172 21.9078 13.6172C22.0964 13.6172 22.2496 13.7636 22.2496 13.9438C22.2496 14.1239 22.0964 14.2704 21.9078 14.2704Z" fill="white"/>
<path d="M21.9078 14.7782C21.7191 14.7782 21.5658 14.6317 21.5658 14.4516C21.5658 14.2714 21.7191 14.125 21.9078 14.125C22.0964 14.125 22.2496 14.2714 22.2496 14.4516C22.2496 14.6317 22.0964 14.7782 21.9078 14.7782Z" fill="white"/>
<path d="M21.9078 15.287C21.7191 15.287 21.5658 15.1406 21.5658 14.9604C21.5658 14.7803 21.7191 14.6338 21.9078 14.6338C22.0964 14.6338 22.2496 14.7803 22.2496 14.9604C22.2496 15.1406 22.0964 15.287 21.9078 15.287Z" fill="white"/>
<path d="M21.9078 15.7958C21.7191 15.7958 21.5658 15.6494 21.5658 15.4692C21.5658 15.289 21.7191 15.1426 21.9078 15.1426C22.0964 15.1426 22.2496 15.289 22.2496 15.4692C22.2496 15.6494 22.0964 15.7958 21.9078 15.7958Z" fill="white"/>
<path d="M21.9078 16.3085C21.7191 16.3085 21.5658 16.162 21.5658 15.9819C21.5658 15.8016 21.7191 15.6553 21.9078 15.6553C22.0964 15.6553 22.2496 15.8016 22.2496 15.9819C22.2496 16.162 22.0964 16.3085 21.9078 16.3085Z" fill="white"/>
<path d="M21.9078 16.8172C21.7191 16.8172 21.5658 16.6708 21.5658 16.4907C21.5658 16.3104 21.7191 16.1641 21.9078 16.1641C22.0964 16.1641 22.2496 16.3104 22.2496 16.4907C22.2496 16.6708 22.0964 16.8172 21.9078 16.8172Z" fill="white"/>
<path d="M21.9078 17.3261C21.7191 17.3261 21.5658 17.1797 21.5658 16.9995C21.5658 16.8193 21.7191 16.6729 21.9078 16.6729C22.0964 16.6729 22.2496 16.8193 22.2496 16.9995C22.2496 17.1797 22.0964 17.3261 21.9078 17.3261Z" fill="white"/>
<path d="M10.3537 4.3319C10.2334 4.3319 10.113 4.26433 10.0529 4.17423C10.0048 4.0954 9.99271 4.01656 10.0168 3.92647C10.0408 3.84763 10.101 3.76881 10.1732 3.72375C10.2213 3.70123 10.2815 3.67871 10.3417 3.67871C10.4621 3.67871 10.5824 3.73501 10.6426 3.83637C10.7388 3.99404 10.6787 4.18549 10.5102 4.27559C10.4741 4.30938 10.4139 4.3319 10.3537 4.3319Z" fill="white"/>
<path d="M9.89449 4.58385C9.77415 4.58385 9.65391 4.51629 9.59376 4.42619C9.54566 4.34736 9.53362 4.26852 9.55768 4.17843C9.58174 4.09959 9.64187 4.02076 9.71407 3.97572C9.76219 3.95319 9.82227 3.93066 9.88243 3.93066C10.0027 3.93066 10.123 3.99824 10.1831 4.08833C10.2793 4.246 10.2192 4.43746 10.0628 4.52755C10.0147 4.57259 9.95456 4.58385 9.89449 4.58385Z" fill="white"/>
<path d="M9.42334 4.84069C9.30508 4.84069 9.1868 4.77312 9.12767 4.67176C9.03306 4.51409 9.09219 4.32264 9.25776 4.23254C9.30507 4.19876 9.36421 4.1875 9.42334 4.1875C9.54161 4.1875 9.65988 4.25506 9.71903 4.34516C9.76632 4.424 9.7781 4.50283 9.75445 4.59293C9.73081 4.67176 9.6717 4.7506 9.60074 4.78438C9.54161 4.81817 9.48247 4.84069 9.42334 4.84069Z" fill="white"/>
<path d="M8.96554 5.08776C8.84726 5.08776 8.729 5.02134 8.66987 4.92169C8.62256 4.8442 8.61073 4.7667 8.63438 4.67813C8.65804 4.60064 8.71717 4.52314 8.79996 4.47885C8.84726 4.45671 8.9064 4.43457 8.96554 4.43457C9.0838 4.43457 9.20207 4.50099 9.2612 4.58956C9.35582 4.74456 9.29668 4.93277 9.13111 5.02134C9.0838 5.07669 9.02467 5.08776 8.96554 5.08776Z" fill="white"/>
<path d="M8.50047 5.34948C8.38257 5.34948 8.26468 5.29317 8.20572 5.19181C8.15857 5.11298 8.14678 5.03414 8.17036 4.94404C8.19394 4.86521 8.25288 4.78638 8.33542 4.74133C8.38258 4.71881 8.44152 4.69629 8.50047 4.69629C8.61836 4.69629 8.73626 4.75259 8.79521 4.85395C8.84237 4.93278 8.85416 5.01162 8.83058 5.10171C8.807 5.18055 8.74805 5.25938 8.67731 5.29317C8.61836 5.33822 8.55942 5.34948 8.50047 5.34948Z" fill="white"/>
<path d="M8.04114 5.61023C7.92287 5.61023 7.8046 5.54147 7.74547 5.44979C7.65086 5.28936 7.70999 5.09454 7.87556 5.00287C7.92287 4.97995 7.982 4.95703 8.04114 4.95703C8.15941 4.95703 8.27767 5.01433 8.3368 5.11747C8.38411 5.19768 8.39594 5.2779 8.37229 5.36958C8.34863 5.44979 8.2895 5.53001 8.21854 5.57585C8.15941 5.5873 8.10027 5.61023 8.04114 5.61023Z" fill="white"/>
<path d="M7.57715 5.86218C7.45888 5.86218 7.34062 5.79341 7.28148 5.70175C7.18687 5.54131 7.24601 5.3465 7.41158 5.25482C7.45888 5.22044 7.51802 5.20898 7.57715 5.20898C7.69542 5.20898 7.81368 5.27774 7.87282 5.36941C7.92013 5.44963 7.93196 5.52985 7.9083 5.62152C7.88465 5.70175 7.82551 5.78196 7.75455 5.81633C7.69542 5.85071 7.63629 5.86218 7.57715 5.86218Z" fill="white"/>
<path d="M7.12526 6.10925C7.00491 6.10925 6.88456 6.04282 6.82439 5.94318C6.77624 5.86568 6.76421 5.78818 6.78828 5.69962C6.81235 5.62212 6.87252 5.54462 6.94473 5.50033C6.99288 5.4782 7.05305 5.45605 7.11322 5.45605C7.23358 5.45605 7.35392 5.51141 7.4141 5.61105C7.51038 5.76604 7.4502 5.95425 7.28171 6.04282C7.24561 6.0871 7.18543 6.10925 7.12526 6.10925Z" fill="white"/>
<path d="M6.65502 6.37096C6.53683 6.37096 6.41864 6.31367 6.35953 6.21053C6.31226 6.13031 6.30043 6.0501 6.32408 5.95842C6.34771 5.8782 6.40681 5.79799 6.48955 5.76361C6.53683 5.74069 6.59593 5.71777 6.65502 5.71777C6.77322 5.71777 6.89141 5.77507 6.95052 5.8782C7.04507 6.03863 6.98597 6.23345 6.83232 6.32513C6.77322 6.3595 6.71412 6.37096 6.65502 6.37096Z" fill="white"/>
<path d="M6.1959 6.6278C6.07726 6.6278 5.95862 6.55905 5.8993 6.46737C5.80439 6.30694 5.86371 6.11212 6.02981 6.02045C6.07726 5.99753 6.13658 5.97461 6.1959 5.97461C6.31455 5.97461 6.43318 6.03191 6.4925 6.13505C6.58742 6.29548 6.5281 6.49029 6.362 6.58197C6.31455 6.60488 6.25522 6.6278 6.1959 6.6278Z" fill="white"/>
<path d="M5.73192 6.87975C5.61327 6.87975 5.49463 6.81099 5.43531 6.71931C5.3404 6.55889 5.39971 6.36407 5.56581 6.2724C5.61327 6.23802 5.6726 6.22656 5.73192 6.22656C5.85055 6.22656 5.9692 6.28386 6.02852 6.38699C6.12342 6.54742 6.06411 6.74224 5.89801 6.83391C5.85055 6.86829 5.79123 6.87975 5.73192 6.87975Z" fill="white"/>
<path d="M5.27906 7.12682C5.15872 7.12682 5.03836 7.0604 4.9782 6.96076C4.93005 6.88326 4.91802 6.80576 4.94209 6.71719C4.96616 6.6397 5.02633 6.5622 5.09854 6.51792C5.14669 6.49578 5.20685 6.47363 5.26703 6.47363C5.38738 6.47363 5.50773 6.52899 5.56791 6.62863C5.66419 6.78363 5.60401 6.97183 5.43552 7.0604C5.39942 7.11576 5.33924 7.12682 5.27906 7.12682Z" fill="white"/>
<path d="M4.81508 7.38854C4.69472 7.38854 4.57438 7.33124 4.5142 7.22811C4.46606 7.14789 4.45403 7.06767 4.4781 6.976C4.50217 6.89578 4.56234 6.81557 4.63455 6.78119C4.68269 6.75827 4.74286 6.73535 4.80304 6.73535C4.92339 6.73535 5.04374 6.79265 5.10391 6.89578C5.20019 7.05621 5.14002 7.25103 4.97153 7.34271C4.93542 7.37708 4.87525 7.38854 4.81508 7.38854Z" fill="white"/>
<path d="M4.34864 7.6444C4.23037 7.6444 4.1121 7.5871 4.05297 7.48397C3.95835 7.32354 4.01748 7.12872 4.18306 7.03705C4.23037 7.01413 4.2895 6.99121 4.34864 6.99121C4.4669 6.99121 4.58517 7.04851 4.64431 7.15165C4.69161 7.23186 4.70343 7.31208 4.67978 7.40376C4.65613 7.48397 4.597 7.56419 4.52603 7.61003C4.4669 7.63295 4.40777 7.6444 4.34864 7.6444Z" fill="white"/>
<path d="M20.0626 20.3915C19.9427 20.3915 19.8227 20.324 19.7627 20.2338C19.7147 20.155 19.7027 20.0762 19.7267 19.986C19.7508 19.9072 19.8107 19.8284 19.8827 19.7834C19.9306 19.7608 19.9906 19.7383 20.0506 19.7383C20.1705 19.7383 20.2905 19.8059 20.3505 19.896C20.3985 19.9748 20.4105 20.0537 20.3866 20.1437C20.3626 20.2226 20.3026 20.3014 20.2305 20.3465C20.1826 20.3803 20.1226 20.3915 20.0626 20.3915Z" fill="white"/>
<path d="M19.5997 20.6482C19.4794 20.6482 19.359 20.591 19.2989 20.4879C19.2507 20.4076 19.2387 20.3274 19.2628 20.2357C19.2868 20.1555 19.347 20.0752 19.4192 20.0409C19.4673 20.0065 19.5276 19.9951 19.5877 19.9951C19.7081 19.9951 19.8284 20.0523 19.8886 20.1555C19.9848 20.3159 19.9246 20.5108 19.7562 20.6024C19.7201 20.6368 19.66 20.6482 19.5997 20.6482Z" fill="white"/>
<path d="M19.1406 20.9003C19.0203 20.9003 18.9 20.844 18.8398 20.7426C18.7916 20.6637 18.7796 20.5849 18.8036 20.4948C18.8277 20.416 18.8879 20.3371 18.9601 20.2922C19.0082 20.2696 19.0684 20.2471 19.1286 20.2471C19.2489 20.2471 19.3693 20.3147 19.4295 20.4048C19.5257 20.5624 19.4656 20.7539 19.2971 20.844C19.261 20.889 19.2008 20.9003 19.1406 20.9003Z" fill="white"/>
<path d="M18.6693 21.161C18.5511 21.161 18.4328 21.0923 18.3736 21.0006C18.279 20.8401 18.3382 20.6454 18.5037 20.5536C18.5511 20.5307 18.6101 20.5078 18.6693 20.5078C18.7876 20.5078 18.9058 20.5765 18.965 20.6683C19.0123 20.7485 19.0241 20.8287 19.0005 20.9203C18.9768 21.0006 18.9177 21.0808 18.8467 21.1152C18.7876 21.1381 18.7285 21.161 18.6693 21.161Z" fill="white"/>
<path d="M18.2113 21.413C18.0931 21.413 17.9748 21.3442 17.9158 21.2525C17.8684 21.1723 17.8566 21.0921 17.8802 21.0003C17.9039 20.9201 17.963 20.84 18.0458 20.8056C18.0931 20.7712 18.1523 20.7598 18.2113 20.7598C18.3297 20.7598 18.4479 20.817 18.507 20.9201C18.6016 21.0806 18.5425 21.2754 18.3769 21.3671C18.3297 21.4015 18.2705 21.413 18.2113 21.413Z" fill="white"/>
<path d="M17.7523 21.6649C17.6323 21.6649 17.5124 21.5974 17.4524 21.5072C17.4045 21.4284 17.3924 21.3496 17.4164 21.2595C17.4404 21.1806 17.5004 21.1018 17.5724 21.0568C17.6204 21.0343 17.6804 21.0117 17.7403 21.0117C17.8603 21.0117 17.9803 21.0793 18.0403 21.1694C18.0882 21.2483 18.1003 21.3271 18.0762 21.4172C18.0522 21.496 17.9922 21.5749 17.9082 21.6086C17.8723 21.6424 17.8123 21.6649 17.7523 21.6649Z" fill="white"/>
<path d="M17.287 21.9218C17.1687 21.9218 17.0505 21.853 16.9914 21.7613C16.8967 21.601 16.9558 21.4061 17.1214 21.3145C17.1687 21.2915 17.2279 21.2686 17.287 21.2686C17.4053 21.2686 17.5236 21.3259 17.5826 21.429C17.63 21.5092 17.6418 21.5895 17.6181 21.6812C17.5945 21.7613 17.5353 21.8415 17.4525 21.8874C17.4053 21.9103 17.3461 21.9218 17.287 21.9218Z" fill="white"/>
<path d="M16.8304 22.1688C16.7099 22.1688 16.5896 22.1024 16.5294 22.0028C16.4813 21.9253 16.4693 21.8477 16.4934 21.7592C16.5174 21.6817 16.5776 21.6042 16.6498 21.56C16.698 21.5378 16.7582 21.5156 16.8183 21.5156C16.9387 21.5156 17.059 21.582 17.1192 21.6706C17.2155 21.8257 17.1552 22.0138 16.9868 22.1024C16.9507 22.1578 16.8905 22.1688 16.8304 22.1688Z" fill="white"/>
<path d="M16.3642 22.4257C16.2462 22.4257 16.1284 22.3581 16.0694 22.2681C16.0222 22.1892 16.0104 22.1104 16.0341 22.0203C16.0576 21.9415 16.1166 21.8626 16.1991 21.8175C16.2462 21.795 16.3052 21.7725 16.3642 21.7725C16.482 21.7725 16.5999 21.8401 16.6588 21.9301C16.706 22.009 16.7178 22.0878 16.6942 22.1779C16.6707 22.2567 16.6117 22.3356 16.5292 22.3807C16.482 22.4144 16.423 22.4257 16.3642 22.4257Z" fill="white"/>
<path d="M15.9011 22.6864C15.7828 22.6864 15.6646 22.6292 15.6054 22.526C15.5581 22.4458 15.5463 22.3656 15.5699 22.2739C15.5937 22.1937 15.6527 22.1134 15.7355 22.0791C15.7828 22.0447 15.842 22.0332 15.9011 22.0332C16.0193 22.0332 16.1376 22.0905 16.1968 22.1937C16.2914 22.3541 16.2322 22.549 16.0667 22.6406C16.0193 22.675 15.9603 22.6864 15.9011 22.6864Z" fill="white"/>
<path d="M15.4419 22.9384C15.3237 22.9384 15.2054 22.8821 15.1463 22.7807C15.099 22.7018 15.0872 22.623 15.1108 22.5329C15.1345 22.4541 15.1936 22.3752 15.2764 22.3302C15.3237 22.3077 15.3829 22.2852 15.4419 22.2852C15.5602 22.2852 15.6785 22.3527 15.7376 22.4428C15.8323 22.6005 15.7731 22.792 15.6075 22.8821C15.5484 22.9158 15.4893 22.9384 15.4419 22.9384Z" fill="white"/>
<path d="M14.9829 23.1902C14.863 23.1902 14.743 23.1227 14.683 23.0326C14.635 22.9538 14.623 22.8749 14.647 22.7849C14.671 22.706 14.731 22.6272 14.803 22.5821C14.8509 22.5596 14.9109 22.5371 14.9709 22.5371C15.0909 22.5371 15.2108 22.6046 15.2708 22.6947C15.3188 22.7736 15.3308 22.8524 15.3068 22.9425C15.2828 23.0213 15.2228 23.1002 15.1508 23.1452C15.1028 23.179 15.0428 23.1902 14.9829 23.1902Z" fill="white"/>
<path d="M14.52 23.4519C14.3997 23.4519 14.2794 23.3832 14.2192 23.2916C14.171 23.2114 14.159 23.1311 14.183 23.0394C14.2071 22.9592 14.2673 22.879 14.3395 22.8446C14.3876 22.8102 14.4478 22.7988 14.508 22.7988C14.6283 22.7988 14.7487 22.8561 14.8089 22.9592C14.9051 23.1196 14.845 23.3145 14.6765 23.4061C14.6524 23.429 14.5802 23.4519 14.52 23.4519Z" fill="white"/>
<path d="M14.061 23.6991C13.9406 23.6991 13.8202 23.6428 13.76 23.5414C13.7119 23.4627 13.6999 23.3838 13.724 23.2937C13.7481 23.2148 13.8082 23.1361 13.8804 23.091C13.9286 23.0684 13.9887 23.0459 14.0489 23.0459C14.1692 23.0459 14.2896 23.1135 14.3498 23.2036C14.4461 23.3613 14.3859 23.5527 14.2174 23.6428C14.1813 23.6879 14.1211 23.6991 14.061 23.6991Z" fill="white"/>
<path d="M20.0555 7.63952C19.9956 7.63952 19.9356 7.62826 19.8875 7.59448C19.8035 7.54942 19.7556 7.48186 19.7316 7.39176C19.7076 7.31293 19.7196 7.22283 19.7676 7.144C19.8276 7.04264 19.9475 6.98633 20.0675 6.98633C20.1275 6.98633 20.1875 6.99759 20.2355 7.03138C20.3194 7.07642 20.3674 7.144 20.3914 7.23409C20.4154 7.31293 20.4034 7.40302 20.3555 7.48186C20.2955 7.58321 20.1755 7.63952 20.0555 7.63952Z" fill="white"/>
<path d="M19.5893 7.38367C19.5298 7.38367 19.4702 7.37241 19.4225 7.33862C19.3391 7.29357 19.2914 7.226 19.2676 7.1359C19.2437 7.05707 19.2556 6.96697 19.3033 6.88814C19.3629 6.78678 19.482 6.73047 19.6013 6.73047C19.6609 6.73047 19.7204 6.74174 19.7682 6.77552C19.935 6.86562 19.9826 7.06833 19.8993 7.21474C19.8277 7.32736 19.7085 7.38367 19.5893 7.38367Z" fill="white"/>
<path d="M19.1301 7.13171C19.0705 7.13171 19.0109 7.12045 18.9632 7.08666C18.8798 7.04161 18.8321 6.97405 18.8083 6.88395C18.7845 6.80512 18.7963 6.71502 18.8441 6.63619C18.9036 6.53483 19.0229 6.47852 19.142 6.47852C19.2016 6.47852 19.2612 6.48978 19.3089 6.52357C19.4758 6.61366 19.5234 6.81638 19.44 6.96278C19.3685 7.06414 19.2493 7.13171 19.1301 7.13171Z" fill="white"/>
<path d="M18.6753 6.87975C18.6151 6.87975 18.555 6.86829 18.5068 6.83391C18.3384 6.74224 18.2781 6.53597 18.3745 6.38699C18.4346 6.28386 18.555 6.22656 18.6753 6.22656C18.7355 6.22656 18.7956 6.23802 18.8438 6.2724C18.928 6.31823 18.9762 6.38699 19.0002 6.46721C19.0243 6.54742 19.0123 6.6391 18.9642 6.71931C18.9161 6.82246 18.8077 6.87975 18.6753 6.87975Z" fill="white"/>
<path d="M18.2113 6.62292C18.1523 6.62292 18.0931 6.61166 18.0458 6.57787C17.963 6.53282 17.9158 6.46526 17.8802 6.37516C17.8566 6.29633 17.8684 6.20623 17.9158 6.1274C17.9748 6.02604 18.0931 5.96973 18.2113 5.96973C18.2705 5.96973 18.3297 5.98099 18.3769 6.01478C18.5425 6.10487 18.6016 6.30759 18.507 6.45399C18.4361 6.55535 18.3297 6.62292 18.2113 6.62292Z" fill="white"/>
<path d="M17.7394 6.36608C17.6804 6.36608 17.6215 6.35482 17.5743 6.32103C17.4918 6.27599 17.4329 6.20841 17.4211 6.11832C17.3975 6.03948 17.4093 5.94939 17.4565 5.87055C17.5154 5.76919 17.6333 5.71289 17.7512 5.71289C17.8101 5.71289 17.8691 5.72415 17.9162 5.75793C17.9987 5.80299 18.0459 5.87055 18.0813 5.96065C18.1049 6.03948 18.0931 6.12958 18.0459 6.20841C17.9752 6.30977 17.8573 6.36608 17.7394 6.36608Z" fill="white"/>
<path d="M17.2866 6.11413C17.227 6.11413 17.1673 6.10287 17.1197 6.06908C16.9528 5.97899 16.9051 5.77628 16.9886 5.62987C17.0482 5.52851 17.1673 5.46094 17.2866 5.46094C17.3461 5.46094 17.4057 5.4722 17.4534 5.50599C17.5368 5.55103 17.5845 5.61861 17.6203 5.7087C17.6441 5.78754 17.6321 5.87763 17.5845 5.95647C17.513 6.04656 17.4057 6.11413 17.2866 6.11413Z" fill="white"/>
<path d="M16.8199 5.85729C16.7604 5.85729 16.7008 5.84603 16.6531 5.81224C16.5697 5.7672 16.522 5.69962 16.4982 5.60953C16.4743 5.53069 16.4862 5.4406 16.5339 5.36176C16.5935 5.26041 16.7126 5.2041 16.8319 5.2041C16.8915 5.2041 16.951 5.21536 16.9987 5.24914C17.1655 5.33924 17.2132 5.54195 17.1298 5.68836C17.0583 5.80098 16.9391 5.85729 16.8199 5.85729Z" fill="white"/>
<path d="M16.3701 5.60534C16.3101 5.60534 16.2501 5.59408 16.2021 5.5603C16.1182 5.51524 16.0702 5.44768 16.0342 5.35758C16.0102 5.27875 16.0223 5.18865 16.0702 5.10982C16.1302 5.00846 16.2501 4.95215 16.3701 4.95215C16.4301 4.95215 16.4901 4.96341 16.5381 4.9972C16.622 5.04224 16.682 5.10982 16.694 5.19991C16.718 5.27875 16.706 5.36884 16.658 5.44768C16.598 5.53777 16.4901 5.60534 16.3701 5.60534Z" fill="white"/>
<path d="M15.9011 5.34948C15.842 5.34948 15.7828 5.33822 15.7355 5.30443C15.6527 5.25938 15.6054 5.19181 15.5699 5.10171C15.5463 5.02288 15.5581 4.93278 15.6054 4.85395C15.6646 4.75259 15.7828 4.69629 15.9011 4.69629C15.9603 4.69629 16.0193 4.70755 16.0667 4.74133C16.2322 4.83143 16.2914 5.03414 16.1968 5.18055C16.1376 5.28191 16.0193 5.34948 15.9011 5.34948Z" fill="white"/>
<path d="M15.4419 5.09753C15.3829 5.09753 15.3237 5.08627 15.2764 5.05248C15.1936 5.00743 15.1345 4.93987 15.1108 4.84977C15.0872 4.77094 15.099 4.68084 15.1463 4.60201C15.2054 4.50065 15.3237 4.44434 15.4419 4.44434C15.5011 4.44434 15.5603 4.4556 15.6075 4.48939C15.7731 4.57948 15.8323 4.7822 15.7376 4.92861C15.6667 5.02996 15.5602 5.09753 15.4419 5.09753Z" fill="white"/>
<path d="M14.9759 4.84069C14.9159 4.84069 14.8559 4.82943 14.808 4.79564C14.724 4.7506 14.676 4.68302 14.652 4.59293C14.628 4.51409 14.64 4.424 14.688 4.34516C14.748 4.2438 14.868 4.1875 14.9879 4.1875C15.0479 4.1875 15.1079 4.19876 15.1558 4.23254C15.2398 4.2776 15.2878 4.34516 15.3118 4.43526C15.3358 4.51409 15.3238 4.60419 15.2758 4.68302C15.2158 4.77312 15.0958 4.84069 14.9759 4.84069Z" fill="white"/>
<path d="M14.507 4.58385C14.4479 4.58385 14.3888 4.57259 14.3414 4.53881C14.2586 4.49376 14.2114 4.42619 14.1877 4.3361C14.1641 4.25726 14.1759 4.16717 14.2232 4.08833C14.2824 3.98698 14.4006 3.93066 14.5189 3.93066C14.578 3.93066 14.6371 3.94192 14.6844 3.97572C14.85 4.06581 14.9092 4.26852 14.8145 4.41492C14.7436 4.52755 14.6371 4.58385 14.507 4.58385Z" fill="white"/>
<path d="M14.0505 4.3319C13.991 4.3319 13.9313 4.32064 13.8837 4.28685C13.8002 4.24181 13.7526 4.17423 13.7288 4.08414C13.7048 4.0053 13.7168 3.91521 13.7645 3.83637C13.8241 3.73501 13.9432 3.67871 14.0624 3.67871C14.1221 3.67871 14.1816 3.68997 14.2292 3.72375C14.3961 3.81385 14.4438 4.01656 14.3603 4.16297C14.2889 4.26433 14.1697 4.3319 14.0505 4.3319Z" fill="white"/>
<path d="M10.3434 23.6991C10.2837 23.6991 10.2242 23.6879 10.1766 23.6541C10.0931 23.609 10.0455 23.5414 10.0215 23.4513C9.99772 23.3725 10.0097 23.2824 10.0573 23.2036C10.1169 23.1022 10.2361 23.0459 10.3553 23.0459C10.4148 23.0459 10.4745 23.0572 10.5221 23.091C10.689 23.181 10.7367 23.3838 10.6532 23.5302C10.5817 23.6428 10.4745 23.6991 10.3434 23.6991Z" fill="white"/>
<path d="M9.88427 23.4471C9.82466 23.4471 9.76504 23.4358 9.71738 23.4021C9.63397 23.357 9.58629 23.2895 9.56246 23.1994C9.53862 23.1205 9.55053 23.0304 9.59821 22.9516C9.65781 22.8502 9.777 22.7939 9.89614 22.7939C9.95576 22.7939 10.0154 22.8052 10.063 22.8389C10.2299 22.9291 10.2776 23.1318 10.1941 23.2782C10.1226 23.3795 10.0034 23.4471 9.88427 23.4471Z" fill="white"/>
<path d="M9.42934 23.1952C9.36917 23.1952 9.30899 23.1838 9.26086 23.1494C9.09237 23.0577 9.03219 22.8514 9.12847 22.7024C9.18864 22.5993 9.30899 22.542 9.42934 22.542C9.48951 22.542 9.54969 22.5535 9.59783 22.5879C9.68208 22.6337 9.73026 22.7024 9.75427 22.7942C9.77837 22.8743 9.76632 22.966 9.71821 23.0462C9.67003 23.1379 9.56172 23.1952 9.42934 23.1952Z" fill="white"/>
<path d="M8.96554 22.9384C8.9064 22.9384 8.84726 22.9271 8.79996 22.8933C8.71717 22.8483 8.66987 22.7807 8.63438 22.6906C8.61073 22.6118 8.62256 22.5217 8.66987 22.4428C8.729 22.3415 8.84726 22.2852 8.96554 22.2852C9.02467 22.2852 9.0838 22.2964 9.13111 22.3302C9.29668 22.4203 9.35582 22.623 9.2612 22.7694C9.19024 22.8707 9.0838 22.9384 8.96554 22.9384Z" fill="white"/>
<path d="M8.50047 22.6864C8.44152 22.6864 8.38258 22.675 8.33542 22.6406C8.25288 22.5948 8.19394 22.526 8.17036 22.4458C8.14678 22.3541 8.15857 22.2739 8.20572 22.1937C8.26468 22.0905 8.38257 22.0332 8.50047 22.0332C8.55942 22.0332 8.61836 22.0447 8.66552 22.0791C8.74806 22.1249 8.79521 22.1937 8.83058 22.2739C8.85416 22.3541 8.84237 22.4458 8.79521 22.526C8.73626 22.6292 8.61836 22.6864 8.50047 22.6864Z" fill="white"/>
<path d="M8.04068 22.4305C7.98109 22.4305 7.9215 22.4191 7.87382 22.3847C7.70697 22.293 7.6593 22.0867 7.74272 21.9378C7.80231 21.8347 7.9215 21.7773 8.04068 21.7773C8.10027 21.7773 8.15986 21.7888 8.20753 21.8232C8.29096 21.8691 8.33863 21.9378 8.3744 22.0295C8.39823 22.1096 8.38631 22.2014 8.33863 22.2816C8.27905 22.3732 8.15986 22.4305 8.04068 22.4305Z" fill="white"/>
<path d="M7.58257 22.1786C7.52192 22.1786 7.46127 22.1671 7.41275 22.1327C7.24294 22.0411 7.19442 21.8348 7.27933 21.6857C7.33998 21.5826 7.46127 21.5254 7.58257 21.5254C7.64322 21.5254 7.70387 21.5368 7.75239 21.5712C7.8373 21.617 7.88582 21.6857 7.91008 21.7775C7.93433 21.8577 7.9222 21.9493 7.87368 22.0296C7.82516 22.1098 7.70387 22.1786 7.58257 22.1786Z" fill="white"/>
<path d="M7.11922 21.9169C7.06009 21.9169 7.00095 21.9056 6.95365 21.8718C6.87085 21.8267 6.82355 21.7592 6.78807 21.6691C6.76442 21.5903 6.77624 21.5001 6.82355 21.4213C6.88269 21.32 7.00095 21.2637 7.11922 21.2637C7.17836 21.2637 7.23748 21.2749 7.28479 21.3087C7.45037 21.3988 7.5095 21.6015 7.41489 21.7479C7.35575 21.8606 7.23748 21.9169 7.11922 21.9169Z" fill="white"/>
<path d="M6.65523 21.6698C6.5961 21.6698 6.53697 21.6583 6.48966 21.624C6.40687 21.5781 6.34774 21.5094 6.32408 21.4291C6.30043 21.3375 6.31226 21.2573 6.35957 21.177C6.4187 21.0739 6.53697 21.0166 6.65523 21.0166C6.71436 21.0166 6.7735 21.028 6.82081 21.0624C6.98638 21.1541 7.04552 21.3604 6.9509 21.5094C6.89177 21.601 6.7735 21.6698 6.65523 21.6698Z" fill="white"/>
<path d="M6.1959 21.413C6.13658 21.413 6.07726 21.4015 6.02981 21.3671C5.86371 21.2754 5.80439 21.0692 5.8993 20.9201C5.95862 20.817 6.07726 20.7598 6.1959 20.7598C6.25522 20.7598 6.31455 20.7712 6.362 20.8056C6.5281 20.8972 6.58742 21.1035 6.4925 21.2525C6.42132 21.3557 6.31455 21.413 6.1959 21.413Z" fill="white"/>
<path d="M5.73146 21.161C5.67168 21.161 5.61189 21.1495 5.56407 21.1152C5.39668 21.0235 5.34886 20.8172 5.43255 20.6683C5.49233 20.5651 5.61189 20.5078 5.73146 20.5078C5.79124 20.5078 5.85102 20.5193 5.89884 20.5536C6.06623 20.6454 6.12601 20.8516 6.03036 21.0006C5.97058 21.0923 5.85102 21.161 5.73146 21.161Z" fill="white"/>
<path d="M5.26865 20.9003C5.20905 20.9003 5.14947 20.889 5.10179 20.8552C5.01837 20.8102 4.97069 20.7426 4.94685 20.6525C4.92302 20.5737 4.93494 20.4836 4.98261 20.4048C5.0422 20.3034 5.16138 20.2471 5.28057 20.2471C5.34015 20.2471 5.39975 20.2583 5.44743 20.2922C5.61428 20.3822 5.66195 20.5849 5.57853 20.7314C5.49509 20.844 5.38783 20.9003 5.26865 20.9003Z" fill="white"/>
<path d="M4.80639 20.6522C4.74649 20.6522 4.68659 20.6408 4.63867 20.6064C4.55481 20.5606 4.50689 20.4918 4.48293 20.4116C4.45897 20.3199 4.47094 20.2397 4.51887 20.1595C4.57877 20.0563 4.69857 19.999 4.81837 19.999C4.87827 19.999 4.93818 20.0105 4.9861 20.0449C5.15381 20.1366 5.20174 20.3428 5.1059 20.4918C5.046 20.5835 4.9262 20.6522 4.80639 20.6522Z" fill="white"/>
<path d="M4.34975 20.3964C4.28958 20.3964 4.2294 20.3849 4.18126 20.3505C4.01277 20.2588 3.9526 20.0526 4.04888 19.9036C4.10906 19.8005 4.2294 19.7432 4.34975 19.7432C4.40992 19.7432 4.4701 19.7547 4.51824 19.789C4.60248 19.8348 4.65062 19.9036 4.67469 19.9952C4.69876 20.0755 4.68672 20.1672 4.63859 20.2474C4.59045 20.3276 4.48214 20.3964 4.34975 20.3964Z" fill="white"/>
<path d="M12.0024 18.8051C15.0694 18.8051 17.5558 16.43 17.5558 13.5002C17.5558 10.5703 15.0694 8.19531 12.0024 8.19531C8.93532 8.19531 6.44897 10.5703 6.44897 13.5002C6.44897 16.43 8.93532 18.8051 12.0024 18.8051Z" fill="white"/>
<path d="M12.0024 16.4813C13.7261 16.4813 15.1234 15.1464 15.1234 13.4999C15.1234 11.8534 13.7261 10.5186 12.0024 10.5186C10.2787 10.5186 8.88135 11.8534 8.88135 13.4999C8.88135 15.1464 10.2787 16.4813 12.0024 16.4813Z" fill="white"/>
<path d="M13.795 2.79237C13.795 3.7395 12.994 4.50468 12.0025 4.50468C11.0109 4.50468 10.21 3.7395 10.21 2.79237C10.21 1.84525 11.0109 1.08008 12.0025 1.08008C12.9891 1.08008 13.795 1.84525 13.795 2.79237Z" fill="white"/>
<path d="M4.08505 8.14394C4.08505 9.09107 3.28403 9.85624 2.29253 9.85624C1.30102 9.85624 0.5 9.09107 0.5 8.14394C0.5 7.1968 1.30102 6.43164 2.29253 6.43164C3.28403 6.43164 4.08505 7.1968 4.08505 8.14394Z" fill="white"/>
<path d="M4.08505 18.852C4.08505 19.7991 3.28403 20.5643 2.29253 20.5643C1.30102 20.5643 0.5 19.7991 0.5 18.852C0.5 17.9048 1.30102 17.1396 2.29253 17.1396C3.28403 17.1396 4.08505 17.9048 4.08505 18.852Z" fill="white"/>
<path d="M13.795 24.2074C13.795 25.1546 12.994 25.9197 12.0025 25.9197C11.0109 25.9197 10.21 25.1546 10.21 24.2074C10.21 23.2603 11.0109 22.4951 12.0025 22.4951C12.9891 22.4904 13.795 23.2603 13.795 24.2074Z" fill="white"/>
<path d="M23.5 18.852C23.5 19.7991 22.6941 20.5643 21.7074 20.5643C20.7208 20.5643 19.9149 19.7991 19.9149 18.852C19.9149 17.9048 20.716 17.1396 21.7074 17.1396C22.6989 17.1396 23.5 17.9048 23.5 18.852Z" fill="white"/>
<path d="M23.5 8.14394C23.5 9.09107 22.6941 9.85624 21.7074 9.85624C20.7208 9.85624 19.9149 9.09107 19.9149 8.14394C19.9149 7.1968 20.716 6.43164 21.7074 6.43164C22.6989 6.43164 23.5 7.1968 23.5 8.14394Z" fill="white"/>
</svg>
